<?xml version="1.0" standalone="no"?>
<!DOCTYPE svg PUBLIC "-//W3C//DTD SVG 20010904//EN"
 "http://www.w3.org/TR/2001/REC-SVG-20010904/DTD/svg10.dtd">
<svg version="1.0" xmlns="http://www.w3.org/2000/svg"
 width="256.000000pt" height="256.000000pt" viewBox="0 0 256.000000 256.000000"
 preserveAspectRatio="xMidYMid meet">

<g transform="translate(0.000000,256.000000) scale(0.100000,-0.100000)"
fill="#000000" stroke="none">
<path d="M1135 2244 c-11 -2 -51 -12 -89 -20 -337 -77 -617 -356 -712 -709
-27 -100 -27 -370 0 -470 95 -352 359 -616 711 -711 100 -27 370 -27 470 0
181 49 319 129 451 260 131 132 211 270 260 451 27 100 27 370 0 470 -94 350
-359 616 -706 710 -63 17 -337 31 -385 19z m195 -89 c18 -13 37 -22 41 -20 4
3 14 -3 21 -12 17 -24 69 -42 93 -32 28 11 75 11 75 0 0 -5 17 -17 38 -28 33
-16 37 -21 32 -48 -4 -23 -11 -30 -32 -32 -15 -1 -37 -7 -49 -13 -17 -10 -19
-14 -8 -21 22 -14 10 -11 -70 16 -80 27 -110 27 -42 -1 30 -12 40 -21 36 -31
-4 -11 -1 -13 11 -9 8 3 25 0 36 -8 19 -13 19 -14 1 -19 -10 -3 -5 -5 14 -6
17 0 33 -5 35 -9 2 -4 18 -18 36 -31 23 -16 30 -27 23 -34 -7 -7 -15 -6 -26 3
-8 7 -18 10 -21 7 -10 -9 37 -29 53 -23 17 7 73 -47 73 -69 0 -7 9 -20 20 -30
11 -10 20 -26 20 -37 0 -10 4 -18 10 -18 17 0 61 -76 54 -93 -4 -11 -1 -17 7
-17 10 0 10 -3 2 -11 -9 -9 -6 -17 8 -32 25 -27 24 -41 -1 -27 -11 6 -20 16
-20 24 0 32 -74 97 -159 139 -86 43 -90 44 -222 52 -74 5 -143 8 -154 7 -11
-1 -74 -6 -140 -11 -183 -15 -257 -44 -384 -153 -53 -46 -65 -42 -22 7 35 40
41 58 11 30 -18 -17 -30 -8 -13 9 5 4 8 11 8 14 1 16 78 124 125 175 49 54
130 117 150 117 5 0 14 9 20 20 6 11 18 20 28 20 9 0 28 9 42 20 l25 21 -30
-7 c-16 -4 -43 -15 -60 -25 -33 -20 -85 -15 -85 7 0 13 23 18 61 15 9 -1 24 9
33 23 35 55 238 86 336 51 57 -20 100 3 72 40 -14 19 -30 15 -24 -7 4 -19 2
-20 -19 -14 -13 5 -67 10 -119 13 -143 8 -220 -16 -372 -113 -55 -36 -74 -54
-89 -89 -11 -24 -46 -69 -79 -101 -33 -31 -62 -65 -65 -76 -4 -10 -16 -19 -28
-19 -22 -2 -22 -2 1 -6 20 -4 32 -23 14 -23 -4 0 -16 -24 -27 -52 -11 -29 -22
-57 -24 -63 -2 -5 6 -1 18 9 12 11 21 31 21 47 0 36 18 47 28 18 6 -14 3 -37
-6 -63 -12 -37 -12 -55 0 -141 3 -17 -4 -20 -39 -23 -48 -4 -57 -18 -16 -28
25 -7 72 -50 73 -67 0 -4 -8 -11 -17 -14 -10 -4 -21 -11 -25 -17 -6 -8 -11 -7
-17 2 -6 11 -9 10 -13 -5 -4 -15 1 -18 31 -18 25 0 37 -5 39 -16 2 -14 -5 -15
-49 -11 -37 3 -50 2 -45 -7 4 -6 23 -11 42 -11 23 0 34 -5 34 -14 0 -8 16 -24
34 -36 19 -11 54 -44 78 -72 60 -72 116 -96 291 -123 46 -7 49 -31 5 -41 -47
-10 -193 -6 -242 7 -22 6 -61 22 -87 34 l-46 24 15 -46 c14 -43 14 -47 -7 -91
-16 -33 -18 -42 -7 -33 27 23 20 -24 -9 -56 -24 -28 -34 -18 -15 17 20 37 -9
31 -34 -7 -35 -51 -34 -88 2 -106 15 -8 32 -12 39 -10 6 2 14 -1 18 -6 9 -16
52 -13 87 5 25 13 38 14 68 5 53 -16 55 -15 85 25 24 31 25 34 7 25 -27 -14
-77 -14 -100 0 -14 9 -25 8 -50 -5 -36 -19 -68 -21 -78 -5 -4 8 0 9 15 4 14
-4 33 1 56 15 26 16 47 21 79 18 24 -1 42 0 40 4 -2 3 22 20 53 36 96 48 123
66 123 82 0 8 5 22 11 30 10 15 9 6 -8 -55 -5 -18 -4 -18 11 -6 9 8 18 12 21
10 2 -2 -15 -20 -38 -39 -22 -19 -38 -29 -33 -22 4 7 3 12 -3 12 -5 0 -12 -4
-16 -9 -7 -12 31 -25 45 -16 5 3 10 3 10 0 0 -3 -17 -14 -39 -23 -38 -17 -99
-78 -88 -88 2 -3 15 9 27 27 13 17 42 40 66 50 86 39 120 110 82 174 -19 33
-20 38 -5 32 14 -5 17 0 17 29 0 19 4 33 9 30 5 -3 14 16 21 43 11 48 4 85
-21 101 -4 3 -3 39 3 80 5 41 11 83 12 93 1 10 -1 40 -4 67 -6 46 2 67 13 38
3 -7 6 1 7 17 1 26 3 27 10 10 8 -18 9 -18 9 5 1 20 3 22 11 10 5 -8 10 -10
10 -5 0 6 5 3 10 -5 7 -11 10 -6 11 20 l1 35 9 -32 c11 -39 17 -41 29 -10 8
21 9 21 9 1 1 -19 41 -67 41 -49 0 5 4 5 10 -1 6 -6 5 -34 -2 -79 -10 -55 -13
-65 -19 -45 -6 20 -7 17 -8 -18 -1 -40 27 -146 50 -185 5 -10 7 -37 4 -60 -4
-29 2 -71 19 -135 26 -99 50 -147 68 -136 8 5 7 10 -3 18 -18 14 -39 61 -39
88 0 30 28 5 32 -30 2 -21 12 -29 50 -42 26 -9 51 -20 55 -23 3 -4 34 -4 68
-1 42 4 65 3 69 -5 5 -7 -5 -11 -31 -12 l-38 -1 40 -12 c25 -7 34 -14 25 -17
-8 -3 17 -9 57 -13 41 -4 80 -3 90 2 10 5 27 6 38 1 11 -4 31 -7 45 -7 16 0
19 2 8 5 -20 5 -23 20 -8 43 8 13 10 13 10 -2 0 -9 4 -18 9 -20 4 -2 12 -13
15 -26 7 -21 5 -22 -51 -22 -146 2 -313 -15 -313 -31 0 -5 21 -9 48 -9 27 0
73 -11 107 -25 67 -28 86 -30 103 -13 6 6 14 9 18 6 3 -4 -6 -14 -20 -23 -24
-16 -29 -15 -103 11 -130 46 -196 15 -124 -57 22 -22 39 -29 67 -29 48 0 34
-17 -22 -26 -36 -5 -45 -3 -77 26 -25 22 -37 41 -37 59 0 28 -34 91 -49 91 -5
0 -24 12 -43 27 l-33 27 31 -35 c18 -19 37 -51 43 -71 7 -20 19 -42 27 -48 7
-7 14 -18 14 -24 -1 -6 -16 6 -34 27 -36 40 -56 47 -56 20 0 -12 -3 -14 -8 -6
-7 12 -52 14 -52 3 0 -10 62 -43 94 -51 25 -5 26 -7 8 -8 -38 -2 -101 37 -127
79 -26 41 -33 84 -15 95 10 6 14 -6 10 -38 -2 -26 18 -47 46 -47 30 0 30 2 -5
51 -29 40 -37 62 -45 129 -4 37 -22 90 -30 90 -3 0 -1 -13 4 -30 5 -16 6 -89
3 -162 l-6 -133 27 -32 c36 -43 138 -77 188 -62 18 5 44 9 58 8 22 -1 20 -3
-10 -13 -19 -6 -40 -14 -47 -19 -26 -17 -145 22 -186 61 -18 17 -26 21 -22 10
4 -9 27 -33 51 -53 24 -20 42 -41 39 -46 -18 -29 -101 11 -134 65 -24 39 -28
68 -7 60 10 -4 12 2 9 20 -3 14 -10 23 -16 19 -7 -4 -8 15 -3 58 l6 64 -18
-30 c-47 -80 -58 -95 -70 -95 -8 0 -10 5 -6 13 5 8 2 7 -9 -2 -10 -8 -17 -21
-15 -30 4 -29 -13 -96 -29 -113 -17 -19 -38 -25 -28 -8 4 7 -3 8 -22 4 -25 -7
-27 -6 -14 9 7 10 22 17 32 17 24 0 39 30 39 77 l0 38 -49 -50 c-47 -50 -87
-75 -117 -75 -25 0 -6 18 26 25 20 4 43 23 65 52 44 58 36 72 -10 18 -33 -40
-33 -40 -28 -11 l6 29 -39 -23 c-21 -13 -41 -27 -44 -30 -14 -19 -53 -31 -63
-21 -6 6 -19 11 -29 11 -39 0 -14 17 51 33 67 18 111 48 111 76 0 8 -9 2 -21
-13 -23 -30 -39 -34 -39 -9 0 15 -2 15 -19 -1 -21 -19 -103 -28 -98 -12 2 6
22 16 45 24 23 7 42 17 42 21 0 8 -52 9 -60 1 -8 -8 -98 -30 -124 -30 -13 0
-29 7 -36 15 -7 9 -27 22 -44 30 -33 16 -76 71 -76 97 0 9 20 39 43 67 49 57
73 116 63 156 -4 14 -40 60 -82 102 -84 84 -99 110 -139 237 -24 77 -27 99
-22 170 3 44 9 92 12 106 5 20 4 22 -4 10 -15 -20 -4 34 15 71 7 15 15 38 18
53 18 100 114 213 260 308 167 108 286 143 465 136 79 -2 97 0 89 10 -6 6 -17
12 -24 12 -17 0 -18 22 -2 38 15 15 8 16 48 -13z m-175 5 c3 -6 -1 -13 -10
-16 -19 -8 -30 0 -20 15 8 14 22 14 30 1z m85 -5 c0 -9 -7 -18 -16 -22 -18 -7
-39 11 -30 26 11 17 46 13 46 -4z m190 0 c0 -8 -6 -15 -14 -15 -17 0 -28 14
-19 24 12 12 33 6 33 -9z m58 -28 c2 -12 -3 -17 -17 -17 -12 0 -21 6 -21 13 0
31 32 34 38 4z m-408 -7 c0 -5 -9 -10 -20 -10 -11 0 -20 5 -20 10 0 6 9 10 20
10 11 0 20 -4 20 -10z m-124 -11 c10 -17 -13 -36 -27 -22 -12 12 -4 33 11 33
5 0 12 -5 16 -11z m684 -9 c0 -11 -7 -20 -15 -20 -15 0 -21 21 -8 33 12 13 23
7 23 -13z m60 -30 c0 -5 -4 -10 -10 -10 -5 0 -10 5 -10 10 0 6 5 10 10 10 6 0
10 -4 10 -10z m-875 -29 c7 -12 -12 -24 -25 -16 -11 7 -4 25 10 25 5 0 11 -4
15 -9z m993 -15 c39 -20 70 -57 72 -86 4 -47 0 -61 -25 -85 -19 -19 -35 -25
-71 -25 -39 0 -51 5 -80 34 -29 29 -34 41 -34 79 0 84 63 122 138 83z m-793
-46 c-3 -5 -10 -10 -16 -10 -5 0 -9 5 -9 10 0 6 7 10 16 10 8 0 12 -4 9 -10z
m605 -30 c0 -5 -4 -10 -10 -10 -5 0 -10 5 -10 10 0 6 5 10 10 10 6 0 10 -4 10
-10z m-35 -38 c0 -18 -20 -15 -23 4 -3 10 1 15 10 12 7 -3 13 -10 13 -16z
m-651 -7 c19 -14 19 -15 1 -35 -10 -11 -31 -20 -46 -20 -29 0 -48 -15 -27 -22
12 -4 -67 -88 -84 -88 -10 0 14 35 34 50 3 3 14 24 23 48 15 37 56 83 74 82 3
0 15 -7 25 -15z m1034 -73 c2 -7 -3 -12 -12 -12 -9 0 -16 7 -16 16 0 17 22 14
28 -4z m-68 -22 c0 -5 -2 -10 -4 -10 -3 0 -8 5 -11 10 -3 6 -1 10 4 10 6 0 11
-4 11 -10z m108 -31 c-2 -6 -8 -10 -13 -10 -5 0 -11 4 -13 10 -2 6 4 11 13 11
9 0 15 -5 13 -11z m-208 -20 c0 -5 -7 -9 -15 -9 -15 0 -20 12 -9 23 8 8 24 -1
24 -14z m252 -34 c0 -5 -5 -11 -11 -13 -6 -2 -11 4 -11 13 0 9 5 15 11 13 6
-2 11 -8 11 -13z m-1303 -35 c-18 -22 -34 -40 -36 -40 -2 0 -3 9 -3 20 0 24
34 60 55 60 12 0 7 -11 -16 -40z m1082 -13 c-1 -12 -15 -9 -19 4 -3 6 1 10 8
8 6 -3 11 -8 11 -12z m280 -23 c24 -23 49 -76 49 -106 0 -3 -14 -10 -31 -13
l-32 -7 6 -92 c3 -62 11 -105 26 -136 16 -35 20 -62 19 -125 l-2 -80 -5 75
c-3 41 -9 74 -13 73 -10 -4 -11 -1 -2 20 4 11 0 25 -10 36 -23 25 -46 104 -46
155 0 50 -20 81 -57 89 -70 14 -96 87 -45 127 38 30 102 23 143 -16z m-201
-154 c0 -5 -7 -10 -16 -10 -8 0 -12 5 -9 10 3 6 10 10 16 10 5 0 9 -4 9 -10z
m98 -72 c3 -30 0 -38 -14 -38 -30 0 -14 -98 26 -156 18 -27 30 -41 27 -31 -4
9 -2 17 3 17 14 0 22 -19 13 -32 -4 -7 -6 -25 -4 -40 2 -20 -2 -28 -13 -28 -9
0 -16 5 -16 11 0 5 5 7 11 3 23 -14 -4 40 -40 79 -20 21 -39 47 -43 56 -7 21
-4 79 6 102 5 12 1 18 -13 22 -15 4 -21 13 -21 34 0 38 7 45 45 41 27 -3 30
-7 33 -40z m151 -119 c19 -46 21 -61 13 -104 l-10 -50 -1 55 c0 31 -10 81 -21
113 -11 31 -19 78 -19 104 l2 48 7 -56 c4 -31 17 -81 29 -110z m11 101 c0 -5
-4 -10 -10 -10 -5 0 -10 5 -10 10 0 6 5 10 10 10 6 0 10 -4 10 -10z m-448 -97
c-51 -64 -76 -82 -156 -113 -61 -24 -91 -30 -144 -28 l-67 1 65 6 c98 9 203
56 270 118 30 29 57 52 58 53 2 0 -10 -17 -26 -37z m308 -43 c0 -5 -4 -10 -10
-10 -5 0 -10 5 -10 10 0 6 5 10 10 10 6 0 10 -4 10 -10z m-1122 -59 c26 -6 86
-16 135 -23 48 -7 87 -16 87 -20 0 -5 -10 -6 -22 -4 -13 3 -63 10 -113 17 -99
12 -160 34 -190 69 -19 21 -18 21 18 -3 21 -14 59 -30 85 -36z m1003 29 c10
-6 28 -28 39 -50 l20 -40 -20 -20 c-31 -31 -108 -23 -132 14 -14 21 -8 60 14
83 23 25 48 29 79 13z m216 -105 c-6 -90 -12 -109 -28 -99 -6 4 -5 11 2 20 7
8 14 48 17 89 2 41 7 75 10 75 3 0 2 -38 -1 -85z m-1267 35 c0 -5 -4 -10 -10
-10 -5 0 -10 5 -10 10 0 6 5 10 10 10 6 0 10 -4 10 -10z m-470 -15 c0 -8 -4
-15 -10 -15 -5 0 -10 7 -10 15 0 8 5 15 10 15 6 0 10 -7 10 -15z m1714 -10
c-4 -8 -8 -15 -10 -15 -2 0 -4 7 -4 15 0 8 4 15 10 15 5 0 7 -7 4 -15z m-90
-24 c3 -5 -3 -11 -13 -14 -14 -3 -18 -1 -14 9 6 16 19 18 27 5z m66 -38 c-1
-31 -3 -35 -11 -20 -6 9 -7 26 -4 37 10 30 15 24 15 -17z m-152 -195 c5 -20
23 -56 39 -80 48 -70 49 -72 25 -66 -18 5 -19 3 -9 -13 9 -14 9 -21 -1 -31 -9
-9 -16 -7 -32 7 -11 10 -20 23 -20 29 0 6 -9 22 -20 36 l-20 25 10 -28 c9 -26
8 -27 -10 -17 -13 7 -20 21 -20 40 0 17 -7 33 -17 39 -23 13 -22 74 2 101 26
28 33 25 30 -13 -4 -51 9 -102 25 -102 8 0 23 -12 33 -27 11 -16 24 -28 30
-28 5 0 3 8 -5 18 -46 51 -61 105 -64 217 l-3 110 9 -90 c4 -50 12 -107 18
-127z m-1518 192 c0 -5 -4 -10 -10 -10 -5 0 -10 5 -10 10 0 6 5 10 10 10 6 0
10 -4 10 -10z m760 -45 c0 -5 -5 -3 -10 5 -5 8 -10 20 -10 25 0 6 5 3 10 -5 5
-8 10 -19 10 -25z m870 -5 c-6 -11 -16 -18 -22 -14 -7 4 -5 10 6 16 9 5 16 17
17 26 0 9 3 12 5 5 3 -7 0 -21 -6 -33z m110 36 c0 -3 -4 -8 -10 -11 -5 -3 -10
-1 -10 4 0 6 5 11 10 11 6 0 10 -2 10 -4z m-1695 -15 c-3 -5 -1 -12 5 -16 5
-3 10 -17 10 -31 0 -18 -5 -24 -22 -24 -53 1 -64 44 -18 67 30 15 33 16 25 4z
m675 0 c0 -5 3 -16 6 -25 4 -11 1 -16 -11 -16 -9 0 -13 -4 -10 -10 3 -6 -4
-10 -17 -10 -18 0 -20 2 -8 10 13 8 12 10 -2 10 -21 0 -24 20 -6 38 14 14 48
16 48 3z m870 -21 c0 -5 -5 -10 -11 -10 -5 0 -7 5 -4 10 3 6 8 10 11 10 2 0 4
-4 4 -10z m-236 -16 c9 -8 16 -27 16 -42 0 -21 -3 -24 -10 -12 -35 56 -12
-126 26 -201 14 -28 23 -56 21 -62 -9 -24 -58 104 -69 182 -9 59 -16 80 -25
77 -22 -9 -34 28 -17 52 18 26 37 28 58 6z m376 5 c0 -6 -8 -18 -17 -27 -16
-16 -16 -16 -10 1 4 10 7 23 7 28 0 5 5 9 10 9 6 0 10 -5 10 -11z m-50 -18
c-10 -20 -72 -72 -78 -66 -3 3 79 84 86 85 1 0 -2 -9 -8 -19z m-97 -23 c-9
-18 -16 -41 -14 -50 1 -10 -3 -18 -8 -18 -17 0 -13 62 6 82 26 29 35 21 16
-14z m-1394 -59 c28 -18 54 -42 57 -52 7 -21 -35 -108 -55 -115 -10 -3 -11 0
-2 16 19 36 13 79 -17 114 -33 39 -56 75 -65 103 -6 15 -3 14 12 -6 11 -14 43
-41 70 -60z m1343 59 c-7 -7 -12 -8 -12 -2 0 14 12 26 19 19 2 -3 -1 -11 -7
-17z m-92 2 c0 -5 -4 -10 -10 -10 -5 0 -10 5 -10 10 0 6 5 10 10 10 6 0 10 -4
10 -10z m-1311 -117 c56 -56 62 -78 31 -114 l-21 -24 6 35 c5 26 4 31 -4 20
-9 -12 -11 -10 -11 11 0 14 -7 34 -16 45 -8 10 -12 13 -8 5 5 -10 3 -12 -5 -7
-7 5 -10 11 -7 14 4 3 -6 19 -21 35 -16 17 -22 26 -14 22 11 -6 13 -4 7 11
-15 36 -17 59 -3 29 8 -16 38 -53 66 -82z m1039 91 c12 -8 22 -26 22 -39 0
-20 -7 -25 -35 -31 -44 -8 -65 0 -65 26 0 19 32 60 48 60 4 0 18 -7 30 -16z
m536 0 c4 -9 4 -19 1 -22 -3 -3 -5 0 -5 6 0 7 -7 12 -15 12 -8 0 -15 5 -15 10
0 16 27 11 34 -6z m-1479 -24 c3 -5 -1 -10 -9 -10 -9 0 -16 5 -16 10 0 6 4 10
9 10 6 0 13 -4 16 -10z m1430 -10 c-3 -5 -1 -10 5 -10 7 0 2 -11 -11 -25 -13
-13 -30 -25 -38 -25 -10 0 -6 -9 12 -28 29 -30 33 -42 17 -42 -5 0 -10 4 -10
10 0 5 -12 21 -27 36 -23 23 -24 27 -10 36 10 5 17 14 17 19 0 6 -5 7 -12 3
-7 -4 -8 -3 -4 5 4 6 11 9 16 6 4 -3 10 2 14 10 3 8 13 15 21 15 9 0 13 -4 10
-10z m55 -8 c0 -5 -9 -17 -20 -27 -11 -10 -20 -24 -20 -32 0 -7 -7 -13 -15
-13 -21 0 -19 8 11 47 24 31 44 43 44 25z m-520 -104 c17 -35 24 -54 15 -44
-8 11 -15 25 -15 30 0 6 -5 4 -11 -4 -8 -12 -9 -10 -4 9 4 13 3 21 -2 18 -5
-3 -14 7 -20 24 -21 54 6 30 37 -33z m236 0 c6 -10 4 -10 -9 1 -9 7 -17 25
-16 40 l1 26 8 -27 c4 -14 11 -32 16 -40z m-146 37 c0 -8 6 -12 13 -10 7 3 28
-26 55 -76 44 -85 51 -117 12 -54 -12 19 -27 41 -34 48 -7 6 -15 21 -19 31 -4
10 -10 17 -13 14 -6 -6 10 -45 33 -78 l17 -25 -26 23 c-27 24 -43 63 -39 94 1
9 -3 19 -9 23 -13 8 -13 25 0 25 6 0 10 -7 10 -15z m-195 -35 c-5 -8 -11 -8
-17 -2 -6 6 -7 16 -3 22 5 8 11 8 17 2 6 -6 7 -16 3 -22z m-981 -36 c10 -25
-1 -29 -14 -5 -6 12 -7 21 -1 21 5 0 12 -7 15 -16z m135 -55 c-6 -12 -9 -32
-6 -45 3 -20 2 -22 -9 -13 -18 15 -18 24 2 54 20 31 29 33 13 4z m95 -30 c-3
-5 -10 -7 -15 -3 -5 3 -7 10 -3 15 3 5 10 7 15 3 5 -3 7 -10 3 -15z m631 -69
c3 -5 1 -10 -4 -10 -6 0 -11 5 -11 10 0 6 2 10 4 10 3 0 8 -4 11 -10z m513
-17 c-10 -2 -26 -2 -35 0 -10 3 -2 5 17 5 19 0 27 -2 18 -5z m-78 -33 c0 -5
-7 -7 -15 -4 -8 4 -15 8 -15 10 0 2 7 4 15 4 8 0 15 -4 15 -10z m-160 -50 c22
-11 51 -20 65 -20 14 0 25 -4 25 -9 0 -13 -74 6 -112 29 -43 26 -29 26 22 0z
m-815 -20 c16 -7 13 -9 -17 -9 -21 -1 -38 4 -38 9 0 12 27 12 55 0z m379 -65
c-12 -43 -34 -82 -34 -62 0 12 42 118 46 115 2 -2 -3 -26 -12 -53z m-23 31
c13 8 11 -1 -13 -51 -15 -31 -28 -45 -42 -45 -20 0 -20 0 0 15 13 9 24 31 29
57 4 24 9 37 12 30 3 -6 9 -10 14 -6z m56 -73 c-3 -10 -5 -2 -5 17 0 19 2 27
5 18 2 -10 2 -26 0 -35z"/>
<path d="M1240 1989 c0 -5 5 -7 10 -4 6 3 10 8 10 11 0 2 -4 4 -10 4 -5 0 -10
-5 -10 -11z"/>
<path d="M1270 1992 c0 -12 73 -20 97 -10 12 4 3 7 -24 7 -23 1 -48 4 -57 7
-9 3 -16 2 -16 -4z"/>
<path d="M1405 1940 c-3 -5 1 -10 10 -10 9 0 13 5 10 10 -3 6 -8 10 -10 10 -2
0 -7 -4 -10 -10z"/>
<path d="M1443 1863 c8 -13 77 -22 77 -11 0 4 -8 8 -17 8 -10 0 -29 3 -42 7
-16 4 -22 2 -18 -4z"/>
<path d="M946 1803 c-6 -14 -5 -15 5 -6 7 7 10 15 7 18 -3 3 -9 -2 -12 -12z"/>
<path d="M1575 1780 c10 -11 23 -19 29 -17 6 2 23 1 38 -4 21 -6 26 -4 21 7
-3 8 -16 14 -28 14 -13 0 -36 5 -51 11 -28 10 -28 10 -9 -11z"/>
<path d="M856 1724 c-5 -14 -4 -15 9 -4 17 14 19 20 6 20 -5 0 -12 -7 -15 -16z"/>
<path d="M815 1700 c3 -5 8 -10 11 -10 2 0 4 5 4 10 0 6 -5 10 -11 10 -5 0 -7
-4 -4 -10z"/>
<path d="M958 1673 c7 -3 16 -2 19 1 4 3 -2 6 -13 5 -11 0 -14 -3 -6 -6z"/>
<path d="M587 1622 c-10 -10 -15 -21 -11 -24 8 -9 44 3 44 14 0 5 -5 6 -12 2
-8 -5 -9 -2 -5 9 8 22 4 21 -16 -1z"/>
<path d="M799 1613 c-13 -16 -12 -17 4 -4 9 7 17 15 17 17 0 8 -8 3 -21 -13z"/>
<path d="M606 1453 c-4 -9 -2 -21 4 -27 7 -7 10 -2 10 17 0 31 -5 34 -14 10z"/>
<path d="M1295 1227 c-4 -18 -2 -49 3 -68 9 -31 10 -28 11 34 1 73 -5 86 -14
34z"/>
<path d="M1273 1185 c0 -22 2 -30 4 -17 2 12 2 30 0 40 -3 9 -5 -1 -4 -23z"/>
<path d="M660 1108 c0 -2 33 -33 73 -68 60 -52 64 -55 27 -16 -41 43 -100 93
-100 84z"/>
<path d="M1236 1047 c3 -10 9 -15 12 -12 3 3 0 11 -7 18 -10 9 -11 8 -5 -6z"/>
<path d="M1200 973 c0 -4 5 -15 10 -23 8 -13 10 -13 10 2 0 9 -4 20 -10 23 -5
3 -10 3 -10 -2z"/>
<path d="M1194 799 c-1 -15 3 -26 7 -23 11 6 12 41 2 47 -5 3 -8 -8 -9 -24z"/>
<path d="M1228 765 c-6 -30 -3 -43 8 -33 3 4 4 19 2 35 l-3 28 -7 -30z"/>
<path d="M1060 759 c0 -5 5 -7 10 -4 6 3 10 8 10 11 0 2 -4 4 -10 4 -5 0 -10
-5 -10 -11z"/>
<path d="M1152 708 c-7 -7 -12 -16 -12 -20 0 -15 -43 -67 -51 -63 -8 6 -59
-51 -59 -66 0 -16 8 -9 30 27 12 19 24 33 27 30 3 -2 -3 -16 -13 -30 -9 -15
-14 -29 -12 -32 13 -12 124 53 145 85 34 50 28 57 -14 20 -32 -27 -39 -30 -41
-15 -2 9 1 30 7 46 11 33 10 35 -7 18z"/>
<path d="M1470 702 c0 -2 29 -16 64 -33 52 -24 68 -28 90 -20 38 15 32 23 -11
16 -28 -5 -34 -4 -23 4 12 8 5 11 -30 11 -37 1 -41 3 -22 10 34 14 26 20 -23
18 -25 -2 -45 -4 -45 -6z"/>
<path d="M1380 692 c0 -29 55 -112 75 -112 13 0 3 29 -16 46 -12 10 -30 33
-40 49 -11 17 -19 24 -19 17z"/>
<path d="M1949 752 c15 -26 43 -59 37 -42 -3 8 -9 23 -12 32 -3 9 -12 19 -20
22 -11 4 -12 1 -5 -12z"/>
<path d="M240 915 c-7 -9 -10 -27 -6 -45 3 -17 1 -30 -4 -30 -6 0 -13 14 -16
30 -8 38 -34 40 -34 2 0 -36 26 -72 51 -72 16 0 18 -3 10 -18 -11 -20 -5 -59
13 -81 28 -36 93 -29 116 14 10 20 10 30 0 55 -14 35 -37 50 -74 50 -23 0 -26
4 -26 36 0 21 4 33 10 29 6 -3 10 -15 10 -26 0 -10 7 -19 15 -19 20 0 19 39
-1 68 -18 25 -46 29 -64 7z m98 -162 c4 -29 -28 -47 -53 -29 -12 9 -15 19 -10
35 9 30 59 26 63 -6z"/>
<path d="M2251 892 c-6 -11 -6 -24 0 -33 14 -23 10 -39 -11 -39 -26 0 -48 -39
-29 -51 11 -7 10 -9 -3 -9 -17 0 -68 -58 -68 -77 0 -16 97 -76 110 -68 15 9
12 26 -7 41 -16 12 -15 13 12 14 19 0 35 7 43 20 11 18 10 20 -15 20 -20 0
-31 7 -40 25 -13 30 -12 30 36 5 36 -18 40 -18 46 -2 6 16 -17 42 -39 42 -6 0
-3 7 7 15 13 9 17 20 12 35 -7 21 -6 21 23 6 27 -14 31 -14 42 0 16 18 16 18
-53 48 -53 24 -57 24 -66 8z m-31 -186 c0 -18 -16 -29 -30 -21 -13 8 -1 35 16
35 8 0 14 -6 14 -14z"/>
<path d="M345 679 c-22 -17 -42 -35 -43 -40 -7 -17 47 -79 63 -73 13 5 12 10
-3 36 -15 27 -16 30 -1 38 37 21 62 47 55 58 -11 18 -27 14 -71 -19z"/>
<path d="M408 587 l-46 -42 34 -39 c26 -30 37 -37 46 -28 9 9 6 17 -11 36
l-22 24 37 30 c24 20 35 36 31 46 -9 23 -17 20 -69 -27z"/>
<path d="M2083 614 c-3 -9 7 -42 23 -75 28 -59 49 -72 49 -31 1 23 33 64 45
57 8 -5 36 23 29 29 -5 4 -123 36 -132 36 -4 0 -10 -7 -14 -16z m58 -37 c-1
-12 -15 -9 -19 4 -3 6 1 10 8 8 6 -3 11 -8 11 -12z"/>
<path d="M2012 537 c-18 -18 -32 -37 -32 -43 0 -14 73 -84 87 -84 20 0 24 18
11 40 -11 18 -10 23 6 36 15 11 17 17 8 26 -9 9 -16 7 -32 -7 -25 -23 -39 -12
-17 13 10 10 17 24 17 30 0 24 -18 20 -48 -11z"/>
<path d="M486 520 c-20 -22 -36 -46 -36 -54 0 -25 41 -66 66 -66 34 0 98 68
82 88 -9 10 -17 7 -44 -19 -20 -20 -39 -29 -48 -26 -23 9 -20 22 14 60 25 29
28 37 16 46 -10 9 -21 3 -50 -29z"/>
<path d="M578 418 c-20 -28 -35 -56 -32 -60 9 -15 33 -8 48 14 16 22 16 21 16
-20 0 -56 23 -66 55 -26 41 51 50 73 36 87 -10 10 -16 7 -29 -12 l-16 -23 -10
43 c-6 23 -16 44 -22 46 -5 2 -26 -20 -46 -49z"/>
<path d="M1896 434 c-9 -8 -16 -24 -16 -36 0 -16 -5 -19 -27 -14 -40 9 -58 -6
-43 -33 11 -21 10 -22 -9 -12 -11 6 -28 11 -39 11 -27 0 -72 -38 -72 -61 0
-20 -15 -26 -25 -9 -18 29 -115 -2 -115 -37 0 -14 -2 -14 -20 2 -17 16 -25 16
-85 4 -58 -11 -65 -15 -65 -36 0 -18 -6 -23 -25 -23 -20 0 -25 5 -25 26 0 19
-4 25 -17 22 -11 -2 -18 -12 -17 -26 3 -111 4 -114 22 -110 10 2 18 14 20 31
4 34 39 38 44 5 2 -13 11 -24 21 -26 15 -3 17 5 18 60 l2 63 10 -58 c8 -45 14
-57 29 -57 11 0 18 7 18 20 0 24 8 25 31 4 10 -9 26 -14 35 -10 16 6 15 8 -1
26 -28 31 -7 44 27 15 16 -14 33 -25 38 -25 26 0 62 23 79 51 11 18 22 26 25
20 12 -19 71 -12 95 10 18 17 22 30 19 56 l-4 35 26 -32 c22 -27 28 -30 38
-18 9 11 8 19 -3 34 -20 26 -19 36 4 29 13 -4 20 0 24 17 6 22 6 22 28 -5 16
-22 24 -25 34 -17 11 9 8 20 -16 61 -37 59 -43 64 -63 43z m-108 -151 c2 -14
-4 -26 -17 -32 -16 -9 -23 -7 -35 10 -20 29 -10 51 23 47 18 -2 27 -10 29 -25z
m-143 -58 c0 -25 -4 -30 -25 -30 -16 0 -26 6 -28 18 -6 30 6 49 30 45 18 -2
23 -9 23 -33z m-137 -13 c2 -7 -6 -12 -17 -12 -21 0 -27 11 -14 24 9 9 26 2
31 -12z"/>
<path d="M712 333 c-52 -39 -61 -57 -26 -59 34 -1 64 -15 64 -29 0 -8 8 -19
19 -24 17 -9 19 -4 25 61 5 53 3 74 -6 80 -19 11 -19 11 -76 -29z m48 -29 c0
-8 -5 -12 -10 -9 -6 4 -8 11 -5 16 9 14 15 11 15 -7z"/>
<path d="M891 253 c-7 -27 -15 -56 -18 -65 -4 -13 0 -18 16 -18 15 0 23 9 29
33 8 32 9 32 21 9 9 -18 15 -20 31 -12 17 9 18 7 13 -24 -4 -24 -1 -35 11 -39
12 -5 19 6 32 48 17 61 28 73 19 21 -10 -48 1 -73 36 -85 53 -18 89 18 89 90
0 22 -5 29 -20 29 -16 0 -20 -7 -20 -32 0 -42 -13 -63 -35 -55 -12 5 -15 17
-13 54 3 46 3 47 -32 55 -23 5 -43 3 -59 -5 -19 -10 -25 -9 -29 1 -6 18 -32
42 -46 42 -6 0 -18 -21 -25 -47z"/>
<path d="M1192 228 c-25 -25 -6 -68 29 -68 10 0 21 -5 25 -11 4 -7 -6 -10 -32
-7 -29 2 -39 -1 -39 -12 0 -25 52 -37 83 -19 37 20 35 50 -5 69 -38 18 -44 35
-9 26 28 -7 46 12 25 25 -20 13 -63 11 -77 -3z"/>
</g>
</svg>
